<svg width="97" height="117" viewBox="0 0 97 117" fill="none" xmlns="http://www.w3.org/2000/svg">
<path d="M30.6829 94.0167C36.1055 106.294 50.4544 111.851 62.732 106.429V106.429C75.0097 101.006 80.5667 86.6572 75.1441 74.3796L63.1777 47.2861L18.7165 66.9232L30.6829 94.0167Z" fill="#F5F5F5"/>
<path d="M18.1028 65.5339L39.6387 56.0222L30.1269 34.4863C13.1674 41.9768 14.0199 54.4687 18.1028 65.5339Z" fill="#F5F5F5"/>
<path d="M62.564 45.8967L41.0281 55.4084L31.5164 33.8726C48.4759 26.3821 57.1351 35.426 62.564 45.8967Z" fill="#F5F5F5"/>
<rect x="30.4976" y="40.9644" width="6.07558" height="13.6701" rx="3.03779" transform="rotate(-23.8296 30.4976 40.9644)" fill="#B00089"/>
<path d="M30.8217 34.1795L28.3374 28.5548C25.8531 22.93 22.7234 11.7084 30.079 11.8207C34.228 13.0692 49.3009 26.0179 53.747 24.0542C58.1931 22.0904 59.6509 14.8646 60.7517 11.7176" stroke="#F5F5F5" stroke-width="3"/>
</svg>
