<svg width="93" height="102" viewBox="0 0 93 102" fill="none" xmlns="http://www.w3.org/2000/svg">
<path d="M35.3141 9.11586L23.5437 5.45386C22.6371 18.382 23.104 45.3215 31.9668 48.0789" stroke="white" stroke-width="5"/>
<path d="M76.5402 21.9422L88.3105 25.6042C81.7227 36.7648 66.0547 58.6844 57.1919 55.927" stroke="white" stroke-width="5"/>
<path d="M31.2326 49.7198C34.7503 50.8142 35.5621 51.0668 33.0168 59.2478L41.6755 61.9417L42.0138 62.047L50.6725 64.7409C53.2178 56.5598 54.0296 56.8124 57.5472 57.9068C63.5735 53.7997 75.2665 27.9017 79.781 16.9684L58.1339 10.2336L57.7957 10.1284L36.1487 3.39355C33.6636 14.9582 28.6001 42.9188 31.2326 49.7198Z" fill="white"/>
<path d="M35.7543 62.3427L46.6624 65.7365L42.2536 82.3107L29.9819 78.4927L35.7543 62.3427Z" fill="white"/>
<path d="M13.7818 79.799C15.6899 76.663 19.4875 75.228 22.9928 76.3185L49.0967 84.44C52.5277 85.5074 54.826 88.7314 54.7164 92.3229L54.5401 98.0975L10.9078 84.5226L13.7818 79.799Z" fill="white"/>
</svg>
