<svg width="91" height="47" viewBox="0 0 91 47" fill="none" xmlns="http://www.w3.org/2000/svg">
<path d="M88.9624 28.2998C89.0058 28.365 89.0473 28.4278 89.087 28.4881C88.5881 28.963 87.8644 29.6242 86.9254 30.4123C84.9351 32.0827 81.9824 34.3186 78.1567 36.5564C70.5042 41.0327 59.3889 45.5 45.5 45.5C31.6111 45.5 20.4958 41.0327 12.8433 36.5564C9.01761 34.3186 6.06492 32.0827 4.07464 30.4123C3.13562 29.6242 2.41193 28.963 1.91299 28.4881C1.95266 28.4278 1.9942 28.365 2.0376 28.2998C2.5443 27.5381 3.30381 26.4427 4.30483 25.1249C6.30856 22.487 9.27079 18.97 13.1001 15.4564C20.777 8.41237 31.8052 1.5 45.5 1.5C59.1948 1.5 70.223 8.41237 77.8999 15.4564C81.7292 18.97 84.6914 22.487 86.6952 25.1249C87.6962 26.4427 88.4557 27.5381 88.9624 28.2998Z" stroke="#F5F5F5" stroke-width="3"/>
<circle cx="45" cy="23" r="21.5" fill="#890090" stroke="#F5F5F5" stroke-width="3"/>
<path fill-rule="evenodd" clip-rule="evenodd" d="M46 35C52.6274 35 58 29.6274 58 23C58 16.3726 52.6274 11 46 11C44.8914 11 43.818 11.1503 42.7989 11.4317C44.3527 12.1618 45.4286 13.741 45.4286 15.5714C45.4286 18.0962 43.3819 20.1429 40.8571 20.1429C38.4545 20.1429 36.4847 18.2893 36.2999 15.934C34.8535 17.9162 34 20.3584 34 23C34 29.6274 39.3726 35 46 35Z" fill="#F5F5F5"/>
</svg>
